# xmcd CD database file
#
# Track frame offsets:
#	150
#	18475
#	31937
#	54422
#
# Disc length: 983 seconds
#
# Revision: 0
# Processed by: cddbd v1.5PL3 Copyright (c) Steve Scherf et al.
# Submitted via: CDex 1.51
#
DISCID=2703d504
DTITLE=矢井田瞳 - Chapter01／マーブル色の日
DYEAR=2004
DGENRE=Vocal
TTITLE0=Chapter01
TTITLE1=マーブル色の日
TTITLE2=月のなみだ
TTITLE3=Hello (bonus track)
EXTD=YEAR: 2004
EXTT0=
EXTT1=
EXTT2=
EXTT3=
PLAYORDER=
